<?xml version="1.0" standalone="no"?>
<svg viewBox="0 0 200 200" xmlns="http://www.w3.org/2000/svg">
  <path fill="#059237" d="M35.3,-61.6C41.5,-57.7,39.3,-39.5,40.5,-26.9C41.8,-14.3,46.5,-7.1,49.1,1.5C51.7,10.2,52.3,20.3,47.2,26.3C42.1,32.3,31.5,34.2,22.7,42.6C13.9,51,6.9,65.8,-4.6,73.8C-16.2,81.8,-32.3,82.9,-45.6,77.1C-58.8,71.3,-69.2,58.6,-71.8,44.6C-74.5,30.6,-69.4,15.3,-69.9,-0.3C-70.4,-15.9,-76.5,-31.8,-73.6,-45.3C-70.7,-58.9,-58.8,-70.1,-45,-69.6C-31.3,-69.2,-15.6,-57.1,-0.5,-56.1C14.6,-55.2,29.2,-65.5,35.3,-61.6Z" transform="translate(100 100)" />
</svg>
