<?xml version="1.0" standalone="no"?>
<svg viewBox="0 0 200 200" xmlns="http://www.w3.org/2000/svg">
  <path fill="#059237" d="M40.3,-62.5C54.3,-61.6,69.3,-55.1,76,-43.8C82.7,-32.4,81.1,-16.2,77.9,-1.8C74.7,12.5,69.9,25,62.2,34.8C54.6,44.5,44.1,51.3,33.3,56.7C22.4,62.1,11.2,66,1.7,63C-7.7,60,-15.5,50.1,-29.1,46.3C-42.7,42.6,-62.2,44.8,-70.9,38.1C-79.5,31.4,-77.4,15.7,-73.9,2C-70.5,-11.7,-65.6,-23.4,-57.9,-31.8C-50.2,-40.2,-39.6,-45.2,-29.5,-48.4C-19.4,-51.5,-9.7,-52.6,1.7,-55.5C13.1,-58.5,26.2,-63.3,40.3,-62.5Z" transform="translate(100 100)" />
</svg>
