<?xml version="1.0" standalone="no"?>
<svg viewBox="0 0 200 200" xmlns="http://www.w3.org/2000/svg">
  <path fill="#00c936" d="M43.1,-73.2C51.1,-61.9,49.5,-41.9,53.7,-26.4C58,-10.9,68,0.2,70.5,12.9C73,25.7,68,40.2,58.1,48.7C48.2,57.3,33.3,59.8,19.6,61.4C6,62.9,-6.4,63.4,-17.4,59.9C-28.4,56.3,-38,48.8,-47.1,39.9C-56.2,31,-64.7,20.8,-68.9,8.4C-73,-4,-72.8,-18.6,-68.1,-32C-63.3,-45.4,-54.2,-57.7,-42.1,-67.1C-30,-76.6,-15,-83.2,1.3,-85.2C17.5,-87.2,35.1,-84.6,43.1,-73.2Z" transform="translate(100 100)" />
</svg>
